<?xml version="1.0" encoding="utf-8"?>
<svg width="24" height="24" version="1.1" viewBox="0 0 24 24"
  xmlns="http://www.w3.org/2000/svg">
  <path
    d="M 12 0 C 8.817 0 5.765 1.264 3.515 3.515 C 1.264 5.765 0 8.818 0 12 C 0 15.182 1.264 18.235 3.515 20.485 C 5.765 22.736 8.818 24 12 24 C 15.182 24 18.235 22.736 20.485 20.485 C 22.736 18.235 24 15.182 24 12 C 24 9.894 23.446 7.824 22.392 6 C 21.339 4.176 19.824 2.661 18 1.608 C 16.176 0.554 14.107 0 12 0 Z M 12 13.2 C 11.682 13.2 11.376 13.074 11.151 12.849 C 10.926 12.624 10.8 12.318 10.8 12 C 10.8 11.682 10.926 11.376 11.151 11.151 C 11.377 10.926 11.682 10.8 12 10.8 C 12.318 10.8 12.624 10.926 12.849 11.151 C 13.074 11.377 13.2 11.682 13.2 12 C 13.2 12.318 13.074 12.624 12.849 12.849 C 12.624 13.074 12.318 13.2 12 13.2 Z M 18 13.2 C 17.682 13.2 17.376 13.074 17.151 12.849 C 16.926 12.624 16.8 12.318 16.8 12 C 16.8 11.157 16.578 10.33 16.157 9.6 C 15.736 8.87 15.13 8.264 14.4 7.843 C 13.67 7.422 12.843 7.2 12 7.2 C 11.571 7.2 11.175 6.971 10.961 6.6 C 10.746 6.229 10.746 5.771 10.961 5.4 C 11.175 5.029 11.571 4.8 12 4.8 C 13.91 4.8 15.741 5.559 17.091 6.909 C 18.441 8.259 19.2 10.09 19.2 12 C 19.2 12.318 19.073 12.623 18.848 12.848 C 18.623 13.073 18.318 13.2 18 13.2 Z" />
</svg>