<?xml version="1.0" encoding="utf-8"?>
<svg version="1.1" x="0px" y="0px" viewBox="0 0 600 600" enable-background="new 0 0 612 792" xmlns="http://www.w3.org/2000/svg">
  <path d="M 566.405 446.812 L 591.5 385.728 C 598.209 369.403 590.436 350.697 574.083 343.973 L 560.213 338.275 C 543.86 331.552 531.996 314.681 531.957 300.519 C 531.903 286.384 543.688 269.432 559.988 262.631 L 573.845 256.852 C 590.145 250.064 597.863 231.305 591.048 215.005 L 565.609 154.066 C 558.807 137.752 540.074 130.06 523.774 136.849 L 509.917 142.641 C 493.603 149.456 473.277 145.922 463.26 135.918 C 453.23 125.928 449.59 105.628 456.312 89.288 L 462.011 75.431 C 468.72 59.077 460.923 40.385 444.568 33.663 L 383.498 8.555 C 367.17 1.833 348.465 9.63 341.755 25.972 L 336.043 39.841 C 329.321 56.195 312.45 68.072 298.287 68.112 C 284.152 68.137 267.213 56.368 260.399 40.067 L 254.633 26.211 C 247.83 9.91 229.085 2.205 212.772 9.007 L 151.833 34.447 C 135.519 41.235 127.814 59.981 134.629 76.296 L 140.408 90.138 C 147.224 106.453 143.676 126.765 133.672 136.809 C 123.695 146.826 103.396 150.479 87.055 143.743 L 73.186 138.057 C 56.832 131.335 38.154 139.147 31.431 155.487 L 6.322 216.559 C -0.399 232.899 7.412 251.605 23.739 258.313 L 37.636 264.026 C 53.963 270.749 65.84 287.608 65.879 301.769 C 65.92 315.918 54.135 332.844 37.835 339.656 L 23.979 345.435 C 7.665 352.251 -0.027 370.982 6.775 387.282 L 32.215 448.208 C 39.003 464.535 57.748 472.242 74.063 465.426 L 87.905 459.647 C 104.22 452.858 124.532 456.391 134.575 466.369 C 144.592 476.361 148.246 496.66 141.51 513.013 L 135.825 526.856 C 129.115 543.21 136.914 561.929 153.255 568.637 L 214.325 593.732 C 230.666 600.442 249.384 592.658 256.093 576.316 L 261.793 562.458 C 268.514 546.104 285.373 534.229 299.535 534.188 C 313.684 534.134 330.609 545.918 337.424 562.22 L 343.202 576.076 C 350.017 592.389 368.736 600.095 385.063 593.279 L 445.988 567.839 C 462.302 561.036 469.994 542.305 463.191 526.005 L 457.414 512.149 C 450.611 495.833 454.158 475.507 464.136 465.492 C 474.126 455.449 494.426 451.808 510.766 458.529 L 524.623 464.229 C 540.977 470.95 559.684 463.152 566.405 446.812 Z M 252.203 414.796 C 189.432 388.996 159.46 317.178 185.246 254.433 C 211.072 191.662 282.864 161.705 345.649 187.491 C 408.394 213.304 438.365 285.096 412.566 347.866 C 386.754 410.624 314.961 440.609 252.203 414.796 Z" style=""/>
</svg>