<?xml version="1.0" encoding="utf-8"?>
<svg viewBox="0 0 24 24" version="1.1" x="0px" y="0px" xmlns="http://www.w3.org/2000/svg">
  <g stroke="none" stroke-width="1" fill-rule="evenodd"
    transform="matrix(1.333333, 0, 0, 1.333333, -4.010147, -3.942503)">
    <g>
      <path
        d="M6.48492424,19 L8,19 C8.55228475,19 9,19.4477153 9,20 C9,20.5522847 8.55228475,21 8,21 L4,21 C3.44771525,21 3,20.5522847 3,20 L3,16 C3,15.4477153 3.44771525,15 4,15 C4.55228475,15 5,15.4477153 5,16 L5,17.5150758 L8.25753788,14.2575379 C8.66758839,13.8474874 9.33241161,13.8474874 9.74246212,14.2575379 C10.1525126,14.6675884 10.1525126,15.3324116 9.74246212,15.7424621 L6.48492424,19 Z M17.5150758,5 L16,5 C15.4477153,5 15,4.55228475 15,4 C15,3.44771525 15.4477153,3 16,3 L20,3 C20.5522847,3 21,3.44771525 21,4 L21,8 C21,8.55228475 20.5522847,9 20,9 C19.4477153,9 19,8.55228475 19,8 L19,6.48492424 L15.7424621,9.74246212 C15.3324116,10.1525126 14.6675884,10.1525126 14.2575379,9.74246212 C13.8474874,9.33241161 13.8474874,8.66758839 14.2575379,8.25753788 L17.5150758,5 Z M19,17.5150758 L19,16 C19,15.4477153 19.4477153,15 20,15 C20.5522847,15 21,15.4477153 21,16 L21,20 C21,20.5522847 20.5522847,21 20,21 L16,21 C15.4477153,21 15,20.5522847 15,20 C15,19.4477153 15.4477153,19 16,19 L17.5150758,19 L14.2575379,15.7424621 C13.8474874,15.3324116 13.8474874,14.6675884 14.2575379,14.2575379 C14.6675884,13.8474874 15.3324116,13.8474874 15.7424621,14.2575379 L19,17.5150758 Z M5,6.48492424 L5,8 C5,8.55228475 4.55228475,9 4,9 C3.44771525,9 3,8.55228475 3,8 L3,4 C3,3.44771525 3.44771525,3 4,3 L8,3 C8.55228475,3 9,3.44771525 9,4 C9,4.55228475 8.55228475,5 8,5 L6.48492424,5 L9.74246212,8.25753788 C10.1525126,8.66758839 10.1525126,9.33241161 9.74246212,9.74246212 C9.33241161,10.1525126 8.66758839,10.1525126 8.25753788,9.74246212 L5,6.48492424 Z" />
    </g>
  </g>
</svg>