<?xml version="1.0" encoding="utf-8"?>
<svg version="1.1" x="0px" y="0px" viewBox="0 0 24 24" style="enable-background:new 0 0 100 100;"
	xmlns="http://www.w3.org/2000/svg">
	<style type="text/css">
		.st0{fill:none;stroke:#9AC8DE;stroke-width:0.1;stroke-miterlimit:10;}
		.st1{fill:none;stroke:#548E75;stroke-width:0.1;stroke-miterlimit:10;}
		.st2{fill:none;stroke:#CCBD84;stroke-width:0.1;stroke-miterlimit:10;}
		.st3{fill:none;stroke:#855848;stroke-width:0.1;stroke-miterlimit:10;}
		.st4{fill:none;stroke:#A1DE9A;stroke-width:0.1;stroke-miterlimit:10;}
		.st5{fill:none;stroke:#B35A3E;stroke-width:0.1;stroke-miterlimit:10;}
		.st6{fill:none;stroke:#7CB28A;stroke-width:0.1;stroke-miterlimit:10;}
		.st7{fill:none;stroke:#BEB1FF;stroke-width:0.1;stroke-miterlimit:10;}
		.st8{fill:none;stroke:#6B0401;stroke-width:0.1;stroke-miterlimit:10;}
		.st9{fill:none;stroke:#237853;stroke-width:0.1;stroke-miterlimit:10;}
		.st10{fill:none;stroke:#001508;stroke-width:2;stroke-miterlimit:10;}
		.st11{fill:none;stroke:#000000;stroke-width:4;stroke-miterlimit:10;}
</style>
	<path
		d="M 0.956 23.888 C 1.169 24.101 1.489 24.101 1.702 23.888 L 8.556 17.035 L 8.556 20.848 C 8.556 21.141 8.796 21.381 9.089 21.381 L 10.156 21.381 C 10.449 21.381 10.689 21.141 10.689 20.848 L 10.689 15.515 C 10.689 14.341 9.729 13.381 8.556 13.381 L 3.222 13.381 C 2.929 13.381 2.689 13.621 2.689 13.915 L 2.689 14.981 C 2.689 15.275 2.929 15.515 3.222 15.515 L 7.036 15.515 L 0.209 22.395 C -0.004 22.608 -0.004 22.928 0.209 23.141 L 0.956 23.888 Z" />
	<path
		d="M 0.956 0.208 L 0.209 0.955 C -0.004 1.168 -0.004 1.488 0.209 1.701 L 7.062 8.555 L 3.222 8.555 C 2.929 8.555 2.689 8.795 2.689 9.088 L 2.689 10.155 C 2.689 10.448 2.929 10.688 3.222 10.688 L 8.556 10.688 C 9.729 10.688 10.689 9.728 10.689 8.555 L 10.689 3.221 C 10.689 2.928 10.449 2.688 10.156 2.688 L 9.089 2.688 C 8.796 2.688 8.556 2.928 8.556 3.221 L 8.556 7.035 L 1.702 0.208 C 1.516 -0.005 1.169 -0.005 0.956 0.208 Z" />
	<path
		d="M 21.409 10.155 L 21.409 9.088 C 21.409 8.795 21.169 8.555 20.876 8.555 L 17.036 8.555 L 23.889 1.701 C 24.102 1.488 24.102 1.168 23.889 0.955 L 23.142 0.208 C 22.929 -0.005 22.609 -0.005 22.396 0.208 L 15.542 7.061 L 15.542 3.221 C 15.542 2.928 15.302 2.688 15.009 2.688 L 13.942 2.688 C 13.649 2.688 13.409 2.928 13.409 3.221 L 13.409 8.555 C 13.409 9.728 14.369 10.688 15.542 10.688 L 20.876 10.688 C 21.169 10.688 21.409 10.448 21.409 10.155 Z" />
	<path
		d="M 23.142 23.888 L 23.889 23.141 C 24.102 22.928 24.102 22.608 23.889 22.395 L 17.036 15.541 L 20.849 15.541 C 21.142 15.541 21.382 15.301 21.382 15.008 L 21.382 13.941 C 21.382 13.648 21.142 13.408 20.849 13.408 L 15.516 13.408 C 14.342 13.408 13.382 14.368 13.382 15.541 L 13.382 20.875 C 13.382 21.168 13.622 21.408 13.916 21.408 L 14.982 21.408 C 15.276 21.408 15.516 21.168 15.516 20.875 L 15.516 17.035 L 22.369 23.888 C 22.582 24.101 22.929 24.101 23.142 23.888 Z" />
</svg>