<svg xmlns="http://www.w3.org/2000/svg" width="7" height="6" viewBox="0 0 7 6">
    <path
        d="M5.82812 0.828125C5.99479 0.994792 5.99479 1.32813 5.82812 1.49479L4.07812 3.32812L5.91146 5.16146C6.07813 5.32812 6.07813 5.66146 5.91146 5.82812C5.74479 5.99479 5.41146 5.99479 5.24479 5.82812L3.41146 3.99479L1.57812 5.82812C1.41146 5.99479 1.07813 5.99479 0.911459 5.82812C0.744792 5.66146 0.744792 5.32812 0.911459 5.16146L2.66146 3.32812L0.828125 1.49479C0.661458 1.32813 0.661458 0.994792 0.828125 0.828125C0.994792 0.661458 1.32812 0.661458 1.49479 0.828125L3.32812 2.66146L5.16146 0.828125C5.32812 0.661458 5.66146 0.661458 5.82812 0.828125Z" />
</svg>