<?xml version="1.0" encoding="utf-8"?>
<svg width="24px" height="24px" viewBox="0 0 24 24" xmlns="http://www.w3.org/2000/svg">
  <g id="Frame" transform="matrix(1.548439, 0, 0, 1.654627, -0.250503, -0.955325)">
    <path id="Vector"
      d="M1.68999 2.20311C2.54441 1.39772 3.67542 0.951073 4.84958 0.955353C6.02375 0.959633 7.15147 1.41451 7.99999 2.22611C8.51048 1.74032 9.12611 1.3788 9.79904 1.16963C10.472 0.96047 11.1841 0.909303 11.88 1.02011H11.882C12.8087 1.17181 13.6672 1.60243 14.3429 2.25457C15.0186 2.9067 15.4795 3.74934 15.664 4.67011V4.67311C15.7972 5.34795 15.7754 6.04423 15.6003 6.70942C15.4251 7.37461 15.1012 7.99134 14.653 8.51311L9.34999 14.8321C9.10041 15.1284 8.76026 15.3344 8.38201 15.4183C8.00376 15.5021 7.60843 15.4592 7.25699 15.2961C7.02398 15.1877 6.81748 15.0297 6.65199 14.8331L1.34799 8.51211C0.584264 7.61769 0.193711 6.46384 0.257187 5.28944C0.320664 4.11503 0.833309 3.01 1.68899 2.20311H1.68999ZM4.84799 2.45511C4.25755 2.45211 3.67866 2.61878 3.18021 2.9353C2.68176 3.25181 2.28472 3.70485 2.03632 4.24051C1.78793 4.77618 1.69863 5.37192 1.77906 5.95687C1.85948 6.54182 2.10625 7.09136 2.48999 7.54011L2.49499 7.54511L7.79999 13.8671C7.83725 13.9109 7.88778 13.9413 7.94391 13.9538C8.00005 13.9663 8.05871 13.96 8.11099 13.9361C8.14567 13.92 8.17639 13.8964 8.20099 13.8671L13.513 7.53711C13.8138 7.18776 14.0314 6.77462 14.1492 6.32889C14.267 5.88315 14.282 5.41648 14.193 4.96411C14.0683 4.34303 13.7574 3.77467 13.3017 3.33467C12.846 2.89467 12.2671 2.60391 11.642 2.50111C11.1732 2.42657 10.6935 2.46143 10.2404 2.60299C9.78725 2.74454 9.373 2.98895 9.02999 3.31711L9.02299 3.32411C8.74523 3.58257 8.3799 3.72625 8.00049 3.72625C7.62108 3.72625 7.25575 3.58257 6.97799 3.32411L6.96899 3.31611C6.39874 2.76746 5.63931 2.45918 4.84799 2.45511Z" />
  </g>
</svg>