<svg xmlns="http://www.w3.org/2000/svg" data-name="Layer 1" viewBox="0 0 32 40" x="0px" y="0px"><path d="m28.84,5.2c-.74-.57-1.68-.77-2.58-.55-.82.21-1.69.2-2.51,0-.91-.23-1.85-.03-2.59.54s-1.16,1.44-1.16,2.37v12.46c-.84-.63-1.87-1.03-3-1.03-2.76,0-5,2.24-5,5s2.24,5,5,5,5-2.24,5-5V7.57c0-.31.14-.6.39-.8s.56-.26.87-.18c1.14.29,2.35.29,3.49,0,.3-.07.62,0,.87.18.25.19.39.48.39.79v1.42c0,.56-.45,1.01-1.01,1.01h-.99c-.55,0-1,.45-1,1s.45,1,1,1h.99c1.66,0,3.01-1.35,3.01-3.01v-1.42c0-.93-.42-1.8-1.16-2.37Zm-11.84,21.8c-1.65,0-3-1.35-3-3s1.35-3,3-3,3,1.35,3,3-1.35,3-3,3Z"/><path d="m17,17c.55,0,1-.45,1-1s-.45-1-1-1c-3.11,0-5.95,1.57-7.61,4.2-.29.47-.16,1.08.31,1.38.17.1.35.15.53.15.33,0,.66-.16.85-.47,1.29-2.04,3.51-3.26,5.92-3.26Z"/><path d="m17,13c.55,0,1-.45,1-1s-.45-1-1-1c-4.49,0-8.59,2.27-11,6.06-.29.47-.16,1.08.31,1.38.17.1.35.15.53.15.33,0,.66-.16.85-.47,2.03-3.21,5.51-5.13,9.3-5.13Z"/><path d="m17,9c.55,0,1-.45,1-1s-.45-1-1-1c-5.87,0-11.24,2.96-14.38,7.93-.29.47-.16,1.08.31,1.38.17.1.35.15.53.15.33,0,.66-.16.85-.47,2.77-4.38,7.51-7,12.69-7Z"/><text x="0" y="47" fill="#000000" font-size="5px" font-weight="bold" font-family="'Helvetica Neue', Helvetica, Arial-Unicode, Arial, Sans-serif">Created by Nirmal Raj</text><text x="0" y="52" fill="#000000" font-size="5px" font-weight="bold" font-family="'Helvetica Neue', Helvetica, Arial-Unicode, Arial, Sans-serif">from the Noun Project</text></svg>