<?xml version="1.0" encoding="utf-8"?>
<svg version="1.1" x="0px" y="0px" viewBox="0 0 24 24" enable-background="new 0 0 48 48" xmlns="http://www.w3.org/2000/svg">
  <path d="M 24 12 C 24 12.319 23.854 12.621 23.601 12.829 L 19.601 16.101 C 19.386 16.277 19.121 16.363 18.858 16.363 C 18.536 16.363 18.215 16.235 17.989 15.983 C 17.579 15.525 17.634 14.837 18.113 14.444 L 19.768 13.091 L 10.286 13.091 C 9.655 13.091 9.143 12.602 9.143 12 C 9.143 11.398 9.655 10.909 10.286 10.909 L 19.768 10.909 L 18.113 9.556 C 17.634 9.163 17.579 8.475 17.989 8.017 C 18.401 7.56 19.123 7.507 19.601 7.899 L 23.601 11.171 C 23.854 11.379 24 11.681 24 12 Z M 13.714 19.637 C 13.714 20.839 12.689 21.818 11.429 21.818 L 4.571 21.818 C 3.311 21.818 2.286 20.839 2.286 19.637 L 2.286 4.363 C 2.286 3.161 3.311 2.182 4.571 2.182 L 11.429 2.182 C 12.689 2.182 13.714 3.161 13.714 4.363 L 13.714 9.273 L 16 9.273 L 16 4.363 C 16 1.957 13.949 0 11.429 0 L 4.571 0 C 2.051 0 0 1.957 0 4.363 L 0 19.637 C 0 22.043 2.051 24 4.571 24 L 11.429 24 C 13.949 24 16 22.043 16 19.637 L 16 14.727 L 13.714 14.727 L 13.714 19.637 Z"/>
</svg>