<?xml version="1.0" encoding="utf-8"?>
<svg data-name="Layer 1" viewBox="0 0 28 25" x="0px" y="0px" xmlns="http://www.w3.org/2000/svg">
  <path d="M 26.585 0.961 C 25.845 0.391 24.905 0.191 24.005 0.411 C 23.185 0.621 22.315 0.611 21.495 0.411 C 20.585 0.181 19.645 0.381 18.905 0.951 C 18.165 1.521 17.745 2.391 17.745 3.321 L 17.745 15.781 C 16.905 15.151 15.875 14.751 14.745 14.751 C 11.985 14.751 9.745 16.991 9.745 19.751 C 9.745 22.511 11.985 24.751 14.745 24.751 C 17.505 24.751 19.745 22.511 19.745 19.751 L 19.745 3.331 C 19.745 3.021 19.885 2.731 20.135 2.531 C 20.385 2.331 20.695 2.271 21.005 2.351 C 22.145 2.641 23.355 2.641 24.495 2.351 C 24.795 2.281 25.115 2.351 25.365 2.531 C 25.615 2.721 25.755 3.011 25.755 3.321 L 25.755 4.741 C 25.755 5.301 25.305 5.751 24.745 5.751 L 23.755 5.751 C 23.205 5.751 22.755 6.201 22.755 6.751 C 22.755 7.301 23.205 7.751 23.755 7.751 L 24.745 7.751 C 26.405 7.751 27.755 6.401 27.755 4.741 L 27.755 3.321 C 27.755 2.391 27.335 1.521 26.595 0.951 L 26.585 0.961 Z M 14.745 22.761 C 13.095 22.761 11.745 21.411 11.745 19.761 C 11.745 18.111 13.095 16.761 14.745 16.761 C 16.395 16.761 17.745 18.111 17.745 19.761 C 17.745 21.411 16.395 22.761 14.745 22.761 Z"/>
  <path d="M 14.745 12.851 C 15.295 12.851 15.745 12.401 15.745 11.851 C 15.745 11.301 15.295 10.851 14.745 10.851 C 11.635 10.851 8.795 12.421 7.135 15.051 C 6.845 15.521 6.975 16.131 7.445 16.431 C 7.615 16.531 7.795 16.581 7.975 16.581 C 8.305 16.581 8.635 16.421 8.825 16.111 C 10.115 14.071 12.335 12.851 14.745 12.851 Z"/>
  <path d="M 14.745 8.851 C 15.295 8.851 15.745 8.401 15.745 7.851 C 15.745 7.301 15.295 6.851 14.745 6.851 C 10.255 6.851 6.155 9.121 3.745 12.911 C 3.455 13.381 3.585 13.991 4.055 14.291 C 4.225 14.391 4.405 14.441 4.585 14.441 C 4.915 14.441 5.245 14.281 5.435 13.971 C 7.465 10.761 10.945 8.841 14.735 8.841 L 14.745 8.851 Z"/>
  <path d="M 14.745 4.851 C 15.295 4.851 15.745 4.401 15.745 3.851 C 15.745 3.301 15.295 2.851 14.745 2.851 C 8.875 2.851 3.505 5.811 0.365 10.781 C 0.075 11.251 0.205 11.861 0.675 12.161 C 0.845 12.261 1.025 12.311 1.205 12.311 C 1.535 12.311 1.865 12.151 2.055 11.841 C 4.825 7.461 9.565 4.841 14.745 4.841 L 14.745 4.851 Z"/>
</svg>