<?xml version="1.0" encoding="utf-8"?>
<svg width="24px" height="24px" viewBox="0 0 24 24" xmlns="http://www.w3.org/2000/svg">
  <g id="Frame" transform="matrix(1.547596, 0, 0, 1.5475, -0.247192, -0.447998)">
    <path id="Vector"
      d="M13.426 2.77711C13.0574 2.40834 12.5941 2.14854 12.0872 2.02635C11.5803 1.90416 11.0495 1.92434 10.5533 2.08466C10.0572 2.24498 9.61494 2.5392 9.27538 2.93489C8.93583 3.33058 8.71214 3.81237 8.629 4.32711L11.876 7.57411C12.3907 7.49096 12.8725 7.26728 13.2682 6.92772C13.6639 6.58816 13.9581 6.14592 14.1184 5.64977C14.2788 5.15361 14.2989 4.62282 14.1768 4.11592C14.0546 3.60903 13.7948 3.14573 13.426 2.77711ZM10.5 8.32111L7.881 5.70111C6.83395 6.8934 5.78695 8.08573 4.74 9.27811L2.065 12.3231C1.85019 12.5689 1.73677 12.887 1.74772 13.2133C1.75866 13.5395 1.89315 13.8494 2.12395 14.0802C2.35475 14.311 2.66462 14.4454 2.99084 14.4564C3.31706 14.4673 3.63525 14.3539 3.881 14.1391L6.941 11.4511L10.501 8.32211L10.5 8.32111ZM7.12 4.29711C7.21074 3.48666 7.52845 2.71831 8.03657 2.08045C8.5447 1.44259 9.22258 0.961158 9.99223 0.691543C10.7619 0.421928 11.592 0.375089 12.3871 0.556417C13.1822 0.737744 13.9099 1.13987 14.4866 1.71652C15.0632 2.29317 15.4654 3.02091 15.6467 3.816C15.828 4.61109 15.7812 5.44123 15.5116 6.21087C15.2419 6.98052 14.7605 7.65841 14.1227 8.16653C13.4848 8.67466 12.7164 8.99237 11.906 9.08311L7.932 12.5761L4.872 15.2651C4.34 15.7317 3.65042 15.9785 2.94314 15.9554C2.23587 15.9323 1.56387 15.641 1.06349 15.1406C0.563101 14.6402 0.2718 13.9682 0.248681 13.261C0.225563 12.5537 0.472359 11.8641 0.938999 11.3321L3.615 8.28711L7.12 4.29711Z"
    />
  </g>
</svg>