<?xml version="1.0" encoding="utf-8"?>
<svg width="24px" height="24px" viewBox="0 0 24 24" xmlns="http://www.w3.org/2000/svg">
  <g id="Frame" transform="matrix(1.523925, 0, 0, 1.655181, -0.250793, 3.796365)"
    style="transform-origin: 0.250793px 8.20364px;">
    <path id="Vector"
      d="M 9.741 1.053 C 9.855 1.119 9.95 1.214 10.016 1.328 C 10.082 1.442 10.116 1.571 10.116 1.703 L 10.116 14.703 C 10.116 14.835 10.082 14.964 10.016 15.078 C 9.95 15.192 9.855 15.287 9.741 15.353 C 9.627 15.419 9.498 15.454 9.366 15.454 C 9.234 15.454 9.105 15.419 8.991 15.353 L 2.066 11.353 C 1.232 10.87 0.624 10.076 0.375 9.144 C 0.125 8.213 0.255 7.222 0.736 6.386 C 1.055 5.833 1.514 5.374 2.066 5.054 L 8.991 1.054 C 9.105 0.988 9.234 0.954 9.366 0.954 C 9.498 0.954 9.627 0.987 9.741 1.053 Z M 2.817 6.353 C 2.493 6.541 2.224 6.811 2.037 7.136 C 1.85 7.46 1.752 7.829 1.752 8.203 C 1.752 8.578 1.85 8.946 2.037 9.271 C 2.224 9.595 2.493 9.865 2.817 10.053 L 8.617 13.403 L 8.617 3.003 L 2.817 6.353 Z"
    />
  </g>
  <path
    d="M 23.462 7.931 C 23.703 8.181 23.703 8.676 23.462 8.925 L 20.929 11.657 L 23.583 14.389 C 23.823 14.638 23.823 15.134 23.583 15.383 C 23.342 15.632 22.859 15.632 22.618 15.383 L 19.966 12.651 L 17.311 15.383 C 17.072 15.632 16.588 15.632 16.349 15.383 C 16.107 15.134 16.107 14.638 16.349 14.389 L 18.88 11.657 L 16.227 8.925 C 15.986 8.676 15.986 8.181 16.227 7.931 C 16.468 7.682 16.95 7.682 17.192 7.931 L 19.844 10.663 L 22.498 7.931 C 22.738 7.682 23.221 7.682 23.462 7.931 Z"
  />
</svg>