<?xml version="1.0" encoding="utf-8"?>
<svg viewBox="0 0 32 32" x="0px" y="0px" xmlns="http://www.w3.org/2000/svg">
  <g data-name="Layer 2" transform="matrix(1.084746, 0, 0, 1.084746, -1.355932, -1.355932)">
    <path
      d="M8,14.75A6.75,6.75,0,1,1,14.75,8,6.76,6.76,0,0,1,8,14.75Zm0-12A5.25,5.25,0,1,0,13.25,8,5.26,5.26,0,0,0,8,2.75Z" />
    <path
      d="M24,14.75A6.75,6.75,0,1,1,30.75,8,6.76,6.76,0,0,1,24,14.75Zm0-12A5.25,5.25,0,1,0,29.25,8,5.26,5.26,0,0,0,24,2.75Z" />
    <path
      d="M24,30.75A6.75,6.75,0,1,1,30.75,24,6.76,6.76,0,0,1,24,30.75Zm0-12A5.25,5.25,0,1,0,29.25,24,5.26,5.26,0,0,0,24,18.75Z" />
    <path
      d="M8,30.75A6.75,6.75,0,1,1,14.75,24,6.76,6.76,0,0,1,8,30.75Zm0-12A5.25,5.25,0,1,0,13.25,24,5.26,5.26,0,0,0,8,18.75Z" />
    <rect x="2" y="2" width="12" height="12" rx="6" ry="6" />
    <rect x="18" y="2" width="12" height="12" rx="6" ry="6" />
    <rect x="18" y="18" width="12" height="12" rx="6" ry="6" />
    <rect x="2" y="18" width="12" height="12" rx="6" ry="6" />
  </g>
</svg>