<?xml version="1.0" encoding="utf-8"?>
<svg data-name="Layer 1" viewBox="0 0 24 24" x="0px" y="0px" xmlns="http://www.w3.org/2000/svg">
  <path d="M 1.164 3.703 L 9.684 3.703 C 10.284 3.703 10.764 3.138 10.764 2.44 C 10.764 1.742 10.284 1.177 9.684 1.177 L 1.164 1.177 C 0.564 1.177 0.084 1.742 0.084 2.44 C 0.084 3.138 0.564 3.703 1.164 3.703 Z M 1.164 10.481 L 9.684 10.481 C 10.284 10.481 10.764 9.916 10.764 9.218 C 10.764 8.52 10.284 7.955 9.684 7.955 L 1.164 7.955 C 0.564 7.955 0.084 8.52 0.084 9.218 C 0.084 9.916 0.564 10.481 1.164 10.481 Z M 1.164 17.392 L 22.932 17.392 C 23.52 17.392 24 16.827 24 16.129 C 24 15.431 23.52 14.866 22.932 14.866 L 1.164 14.866 C 0.564 14.866 0.084 15.431 0.084 16.129 C 0.084 16.827 0.564 17.392 1.164 17.392 Z M 22.836 21.474 L 1.068 21.474 C 0.48 21.474 0 22.039 0 22.737 C 0 23.435 0.48 24 1.068 24 L 22.836 24 C 23.436 24 23.916 23.435 23.916 22.737 C 23.916 22.039 23.436 21.474 22.836 21.474 Z M 13.008 12.937 C 13.248 13.111 13.512 13.196 13.788 13.196 C 14.004 13.196 14.232 13.136 14.448 13.013 C 14.448 13.007 14.46 13 14.472 12.994 L 22.116 8.132 C 22.608 7.832 22.908 7.248 22.908 6.598 C 22.908 5.947 22.608 5.36 22.116 5.063 L 14.472 0.202 C 14.472 0.202 14.448 0.189 14.448 0.183 C 13.98 -0.086 13.452 -0.057 13.008 0.258 C 12.576 0.577 12.312 1.127 12.312 1.73 L 12.312 11.466 C 12.312 12.069 12.576 12.622 13.008 12.937 Z M 14.46 3.065 L 20.016 6.598 L 14.46 10.131 L 14.46 3.062 L 14.46 3.065 Z"/>
</svg>