<?xml version="1.0" encoding="utf-8"?>
<svg width="24" height="24" viewBox="0 0 21.5 23.1" xmlns="http://www.w3.org/2000/svg">
  <path d="M 0.104 1.233 C 0.104 1.031 0.159 0.831 0.267 0.657 C 0.372 0.481 0.527 0.336 0.711 0.233 C 0.894 0.134 1.104 0.079 1.317 0.079 C 1.53 0.079 1.74 0.134 1.924 0.233 L 20.797 10.581 C 20.983 10.682 21.136 10.829 21.241 11.003 C 21.349 11.179 21.404 11.377 21.404 11.579 C 21.404 11.781 21.349 11.979 21.241 12.155 C 21.136 12.329 20.983 12.476 20.797 12.577 L 1.924 22.925 C 1.74 23.024 1.53 23.079 1.317 23.079 C 1.106 23.079 0.896 23.024 0.711 22.925 C 0.527 22.824 0.374 22.677 0.267 22.503 C 0.161 22.329 0.104 22.129 0.104 21.927 L 0.104 1.233 Z"/>
</svg>