<?xml version="1.0" encoding="utf-8"?>
<svg version="1.1" viewBox="0 0 24 24" overflow="visible" enable-background="new 0 0 512 464" x="0px" y="0px" xmlns="http://www.w3.org/2000/svg">
  <g transform="matrix(0.046875, 0, 0, 0.051724, 0, 0)">
    <g>
      <path d="m 47.996,0 m 0,0 C 21.676,0 0,21.676 0,47.996 v 176 c 0,26.324 21.676,48.008 47.996,48.008 h 47.996 c 4.246,0 8.317,-1.688 11.321,-4.688 3,-3 4.687,-7.074 4.683,-11.316 0,-4.246 -1.687,-8.313 -4.687,-11.313 -3,-3 -7.071,-4.688 -11.317,-4.684 H 47.996 C 38.973,240.003 32,233.023 32,223.995 v -176 C 32,38.973 38.973,32 47.996,32 H 208 c 9.023,0 15.996,6.973 15.996,15.996 V 64 c 0,8.836 7.164,15.996 15.996,16 4.242,0 8.313,-1.684 11.317,-4.684 3,-3 4.687,-7.07 4.687,-11.316 V 47.996 C 255.996,21.676 234.32,0 208,0 Z"/>
      <path d="m 176,96.004 m 0,0 c -26.32,0 -48.004,21.676 -48.004,47.996 v 176 c 0,26.32 21.684,48.004 48.004,48.004 h 47.996 c 4.246,0.004 8.317,-1.684 11.317,-4.684 3.003,-3.004 4.687,-7.074 4.687,-11.32 0,-4.242 -1.687,-8.313 -4.687,-11.313 -3.004,-3 -7.075,-4.684 -11.317,-4.684 H 176 c -9.027,0 -16.004,-6.977 -16.004,-16.004 V 144 c 0,-9.027 6.977,-15.996 16.004,-15.996 h 159.992 c 9.027,0 16.004,6.969 16.004,15.996 v 16.004 C 352,168.836 359.16,176 367.992,176 c 4.246,0 8.316,-1.684 11.316,-4.684 3,-3 4.688,-7.07 4.691,-11.312 V 144 c 0,-26.32 -21.688,-47.996 -48.008,-47.996 z"/>
      <path d="m 303.992,223.996 m 0,0 h 160.004 c 9.027,0 16.004,6.981 16.004,16.008 v 176 C 480,425.027 473.02,432 463.996,432 H 303.992 c -9.023,0 -15.996,-6.973 -15.996,-15.996 v -176 c 0,-9.027 6.973,-16.008 15.996,-16.008 z m 0,-32 c -26.32,0 -47.996,21.684 -47.996,48.008 v 176 c 0,26.32 21.676,47.996 47.996,47.996 H 463.996 C 490.316,464 512,442.324 512,416.004 v -176 c 0,-26.32 -21.684,-48.008 -48.004,-48.008 z"/>
      <path d="m 71.996,56 m 0,0 C 63.16,56 56,63.164 56,71.996 c -0.004,4.242 1.684,8.313 4.684,11.317 3,3 7.066,4.687 11.312,4.687 H 88 c 4.242,0 8.313,-1.687 11.313,-4.687 3,-3.004 4.683,-7.075 4.683,-11.317 C 103.992,63.164 96.832,56 88,56 Z"/>
      <path d="m 199.996,152 m 0,0 c -4.242,0 -8.312,1.684 -11.312,4.684 -3.004,3 -4.688,7.07 -4.692,11.316 0,4.242 1.688,8.316 4.688,11.316 3,3 7.074,4.688 11.316,4.688 h 15.996 c 4.246,0 8.317,-1.688 11.321,-4.688 3,-3 4.687,-7.074 4.683,-11.316 0,-4.246 -1.687,-8.316 -4.687,-11.316 -3,-3 -7.071,-4.684 -11.317,-4.684 z"/>
      <path d="m 328,248.004 m 0,0 c -4.246,0 -8.316,1.684 -11.316,4.684 -3,3 -4.688,7.07 -4.688,11.313 -0.004,4.246 1.684,8.316 4.684,11.32 3.004,3 7.074,4.688 11.32,4.684 h 15.996 c 4.246,0.004 8.316,-1.684 11.316,-4.684 3.004,-3.004 4.688,-7.074 4.688,-11.32 0,-4.242 -1.688,-8.313 -4.688,-11.313 -3.004,-3 -7.074,-4.684 -11.316,-4.684 z"/>
    </g>
  </g>
</svg>