<?xml version="1.0" encoding="utf-8"?>
<svg width="24px" height="24px" viewBox="0 0 24 24" xmlns="http://www.w3.org/2000/svg">
  <g id="Frame" transform="matrix(1.501877, 0, 0, 1.640083, 0, -1.345945)"
    style="transform-origin: 0px 0.345945px;">
    <path id="Vector"
      d="M 13.176 1.194 C 13.108 1.121 13.025 1.062 12.933 1.021 C 12.841 0.98 12.741 0.958 12.641 0.956 C 12.54 0.954 12.44 0.973 12.347 1.01 C 12.253 1.048 12.168 1.104 12.097 1.175 C 12.026 1.247 11.97 1.331 11.932 1.425 C 11.894 1.518 11.876 1.618 11.878 1.719 C 11.879 1.82 11.901 1.919 11.942 2.011 C 11.983 2.103 12.043 2.186 12.116 2.254 L 13.134 3.272 L 11.185 3.272 C 10.638 3.272 10.097 3.392 9.6 3.624 C 9.104 3.855 8.664 4.193 8.312 4.612 L 2.139 11.968 C 1.928 12.22 1.664 12.423 1.366 12.562 C 1.069 12.701 0.744 12.772 0.415 12.772 L 0.025 12.772 L 0.025 14.272 L 0.416 14.272 C 0.964 14.272 1.505 14.152 2.001 13.921 C 2.498 13.689 2.937 13.352 3.289 12.932 L 9.462 5.576 C 9.673 5.325 9.937 5.122 10.235 4.983 C 10.533 4.844 10.858 4.772 11.186 4.772 L 13.133 4.772 L 12.116 5.79 C 11.984 5.933 11.912 6.121 11.915 6.315 C 11.919 6.509 11.997 6.695 12.135 6.832 C 12.272 6.969 12.457 7.048 12.652 7.052 C 12.846 7.055 13.034 6.983 13.176 6.85 L 16.005 4.022 L 13.175 1.194 L 13.176 1.194 Z M 0.416 3.772 L 0.025 3.772 L 0.025 2.272 L 0.416 2.272 C 1.525 2.272 2.576 2.762 3.289 3.612 L 4.915 5.549 L 3.936 6.716 L 2.14 4.576 C 1.929 4.325 1.665 4.122 1.367 3.983 C 1.069 3.844 0.744 3.772 0.415 3.772 L 0.416 3.772 Z"
    />
    <path id="Vector_2"
      d="M7.5 10.9261L8.48 9.75912L9.437 10.8991C9.64821 11.1509 9.91201 11.3534 10.2099 11.4923C10.5077 11.6312 10.8324 11.7031 11.161 11.7031H13.108L12.091 10.6851C12.0173 10.6165 11.9582 10.5337 11.9172 10.4417C11.8762 10.3497 11.8542 10.2503 11.8524 10.1496C11.8506 10.0489 11.8692 9.94891 11.9069 9.85552C11.9446 9.76214 12.0007 9.6773 12.072 9.60608C12.1432 9.53486 12.228 9.47872 12.3214 9.441C12.4148 9.40328 12.5148 9.38475 12.6155 9.38653C12.7162 9.38831 12.8155 9.41035 12.9075 9.45134C12.9995 9.49233 13.0823 9.55143 13.151 9.62512L15.98 12.4531L13.151 15.2811C13.0823 15.3548 12.9995 15.4139 12.9075 15.4549C12.8155 15.4959 12.7162 15.5179 12.6155 15.5197C12.5148 15.5215 12.4148 15.503 12.3214 15.4652C12.228 15.4275 12.1432 15.3714 12.072 15.3002C12.0007 15.2289 11.9446 15.1441 11.9069 15.0507C11.8692 14.9573 11.8506 14.8573 11.8524 14.7566C11.8542 14.6559 11.8762 14.5566 11.9172 14.4646C11.9582 14.3726 12.0173 14.2898 12.091 14.2211L13.109 13.2031H11.16C10.6123 13.2031 10.0713 13.0831 9.57494 12.8516C9.07859 12.6201 8.63898 12.2827 8.287 11.8631L7.5 10.9261Z"
    />
  </g>
</svg>