<?xml version="1.0" encoding="utf-8"?>
<svg width="24px" height="24px" viewBox="0 0 24 24" xmlns="http://www.w3.org/2000/svg">
  <g id="Frame" transform="matrix(1.5, 0, 0, 1.619794, 4, -1.663479)"
    style="transform-origin: 8px 0.460359px;">
    <path id="Vector"
      d="M 0 4.953 C 0 3.959 0.395 3.005 1.098 2.301 C 1.802 1.598 2.755 1.203 3.75 1.203 L 11.6 1.203 L 11.6 2.685 L 3.75 2.703 C 3.153 2.703 2.581 2.94 2.159 3.362 C 1.737 3.784 1.5 4.356 1.5 4.953 L 1.5 9.953 C 1.5 10.55 1.737 11.122 2.159 11.544 C 2.581 11.966 3.153 12.203 3.75 12.203 L 5 12.203 L 5 13.703 L 3.75 13.703 C 2.755 13.703 1.802 13.308 1.098 12.605 C 0.395 11.902 0 10.948 0 9.953 L 0 4.953 Z M 12.25 2.703 L 10.761 2.657 L 11.5 1.203 L 12.25 1.203 C 13.245 1.203 14.198 1.598 14.902 2.301 C 15.605 3.005 16 3.959 16 4.953 L 16 9.953 C 16 10.948 15.605 11.902 14.902 12.605 C 14.198 13.308 13.245 13.703 12.25 13.703 L 9.81 13.703 L 10.828 14.721 C 10.902 14.79 10.961 14.873 11.002 14.965 C 11.043 15.057 11.065 15.156 11.067 15.257 C 11.068 15.357 11.05 15.457 11.012 15.551 C 10.974 15.644 10.918 15.729 10.847 15.8 C 10.776 15.871 10.691 15.928 10.598 15.965 C 10.504 16.003 10.404 16.022 10.304 16.02 C 10.203 16.018 10.104 15.996 10.012 15.955 C 9.919 15.914 9.837 15.855 9.768 15.781 L 6.939 12.953 L 9.768 10.125 C 9.837 10.051 9.919 9.992 10.012 9.951 C 10.104 9.91 10.203 9.888 10.304 9.887 C 10.404 9.885 10.504 9.903 10.598 9.941 C 10.691 9.979 10.776 10.035 10.847 10.106 C 10.918 10.177 10.974 10.262 11.012 10.356 C 11.05 10.449 11.068 10.549 11.067 10.65 C 11.065 10.75 11.043 10.85 11.002 10.942 C 10.961 11.034 10.902 11.117 10.828 11.185 L 9.811 12.203 L 12.25 12.203 C 12.847 12.203 13.419 11.966 13.841 11.544 C 14.263 11.122 14.5 10.55 14.5 9.953 L 14.5 4.953 C 14.5 4.356 14.263 3.784 13.841 3.362 C 13.419 2.94 12.847 2.703 12.25 2.703 Z"
      />
  </g>
</svg>