<?xml version="1.0" encoding="utf-8"?>
<svg data-name="Layer 1" viewBox="0 0 24 24" x="0px" y="0px" xmlns="http://www.w3.org/2000/svg">
  <path class="cls-1"
    d="M 22.88 4.122 L 17.76 4.122 L 17.76 2.421 C 17.76 1.086 16.605 0 15.186 0 L 8.814 0 C 7.395 0 6.24 1.086 6.24 2.421 L 6.24 4.122 L 1.12 4.122 C 0.501 4.122 0 4.594 0 5.176 C 0 5.758 0.501 6.229 1.12 6.229 L 3.312 6.229 L 4.657 22.193 C 4.743 23.213 5.649 24 6.737 24 L 17.263 24 C 18.351 24 19.257 23.213 19.343 22.193 L 20.688 6.229 L 22.88 6.229 C 23.499 6.229 24 5.758 24 5.176 C 24 4.594 23.499 4.122 22.88 4.122 Z M 8.481 2.421 C 8.481 2.247 8.63 2.107 8.814 2.107 L 15.186 2.107 C 15.37 2.107 15.519 2.247 15.519 2.421 L 15.519 4.122 L 8.481 4.122 L 8.481 2.421 Z M 9.881 18.137 C 9.881 18.719 9.38 19.191 8.761 19.191 C 8.142 19.191 7.64 18.719 7.64 18.137 L 7.64 10.214 C 7.64 9.632 8.142 9.16 8.761 9.16 C 9.38 9.16 9.881 9.632 9.881 10.214 L 9.881 18.137 Z M 16.36 18.137 C 16.36 18.719 15.858 19.191 15.239 19.191 C 14.62 19.191 14.119 18.719 14.119 18.137 L 14.119 10.214 C 14.119 9.632 14.62 9.16 15.239 9.16 C 15.858 9.16 16.36 9.632 16.36 10.214 L 16.36 18.137 Z" />
</svg>