<?xml version="1.0" encoding="utf-8"?>
<svg width="24px" height="24px" viewBox="0 0 24 24" xmlns="http://www.w3.org/2000/svg">
  <g id="Frame" transform="matrix(1.523925, 0, 0, 1.655181, -0.250793, 3.796365)"
    style="transform-origin: 0.250793px 8.20364px;">
    <path id="Vector"
      d="M9.74102 1.05316C9.8551 1.11902 9.94983 1.21378 10.0157 1.32788C10.0815 1.44199 10.1161 1.57142 10.116 1.70316V14.7032C10.1161 14.8348 10.0815 14.9642 10.0157 15.0783C9.94993 15.1924 9.85526 15.2872 9.74123 15.353C9.6272 15.4189 9.49783 15.4536 9.36614 15.4536C9.23445 15.4537 9.10507 15.419 8.99102 15.3532L2.06602 11.3532C1.23221 10.8697 0.624037 10.0755 0.374741 9.14446C0.125444 8.21344 0.255359 7.22157 0.736019 6.38616C1.05486 5.83319 1.51354 5.37383 2.06602 5.05416L8.99102 1.05416C9.10503 0.988329 9.23437 0.953674 9.36602 0.953674C9.49767 0.953674 9.627 0.987329 9.74102 1.05316ZM2.81702 6.35316C2.49299 6.54122 2.22403 6.81109 2.03707 7.13575C1.85012 7.46042 1.75171 7.8285 1.75171 8.20316C1.75171 8.57781 1.85012 8.94589 2.03707 9.27056C2.22403 9.59523 2.49299 9.8651 2.81702 10.0532L8.61702 13.4032V3.00316L2.81702 6.35316ZM11.5 10.6432V5.76315C11.9466 5.99532 12.321 6.34562 12.5822 6.77586C12.8434 7.20611 12.9816 7.6998 12.9816 8.20316C12.9816 8.70651 12.8434 9.2002 12.5822 9.63045C12.321 10.0607 11.9466 10.411 11.5 10.6432Z"
    />
    <path id="Vector_2"
      d="M11.5 13.8171C12.7765 13.5323 13.9179 12.821 14.7359 11.8005C15.5539 10.7799 15.9996 9.51103 15.9996 8.20311C15.9996 6.8952 15.5539 5.62634 14.7359 4.60577C13.9179 3.58521 12.7765 2.87389 11.5 2.58911V4.13911C12.3687 4.40678 13.1288 4.94581 13.6688 5.67714C14.2087 6.40846 14.5 7.29357 14.5 8.20261C14.5 9.11165 14.2087 9.99676 13.6688 10.7281C13.1288 11.4594 12.3687 11.9984 11.5 12.2661V13.8161V13.8171Z"
    />
  </g>
</svg>